<svg width="100" height="170" viewBox="0 0 100 170" fill="none" xmlns="http://www.w3.org/2000/svg">
<path d="M96 0C98.2091 2.11315e-05 100 1.79087 100 4V166C100 168.209 98.2091 170 96 170H4C1.79086 170 0 168.209 0 166V141.021C5.1897 149.631 12.3687 156.795 20.9102 161.855C30.328 167.435 41.0431 170.247 51.8955 169.983C62.7478 169.72 71.3457 168.03 80.5 162C89.6542 155.97 91 153 95 148L95.1211 148.121C95.6836 147.558 96 146.796 96 146C95.9999 145.204 95.6837 144.441 95.1211 143.879C94.5585 143.316 93.7956 143 93 143C92.2044 143 91.4415 143.316 90.8789 143.879L91 144C86.5 150.5 85.4999 151.5 78 155.5C71.3438 159.885 58.391 158.809 50.5 159C42.6091 159.191 34.3478 155.057 27.5 151C20.6522 146.943 14.328 140.635 10.5 133.5C6.672 126.365 4.20324 114.34 4.5 106.188C4.79689 98.035 9.16417 89.8171 13.5 83C17.8359 76.1828 24.7428 71.6565 31.8662 68.1426C38.9895 64.6288 46.9072 63.1964 54.7617 64L56.3613 47.2988C45.5588 46.1936 34.6689 48.1644 24.8721 52.9971C15.0754 57.8298 6.74434 65.3412 0.78125 74.7168C0.515224 75.1351 0.255664 75.5573 0 75.9814V4C2.97588e-06 1.79086 1.79086 0 4 0H96ZM56.4365 72.8496L64.4014 73.6016L67.5947 39.751L59.6299 39L56.4365 72.8496Z" fill="#FD4B4E"/>
</svg>
